# xmcd
#
# Track frame offsets: 
#        150
#        13299
#        28864
#        42574
#        56488
#        71360
#        84533
#        94530
#        109377
#        122529
#
# Disc length: 1844 seconds
#
# Revision: 0
# Processed by: cddbd v1.5.2PL0 Copyright (c) Steve Scherf et al.
# Submitted via: ExactAudioCopy v1.3
#
DISCID=8307320a
DTITLE=Lacy J. Dalton - Dream Baby
DYEAR=1983
DGENRE=Country
TTITLE0=Dream Baby (How Long Must I Dream)
TTITLE1=My Old Yellow Car
TTITLE2=Too Many Miles
TTITLE3=The Waltz Time Forgot
TTITLE4=Windin' Down
TTITLE5=You Satisfy Me
TTITLE6=Baby You Can Rock With Me
TTITLE7=Baby,Better Start Turnin' Em Down
TTITLE8=You Got It Comin' Tonight
TTITLE9=Dixie Devil
EXTD=
EXTT0=
EXTT1=
EXTT2=
EXTT3=
EXTT4=
EXTT5=
EXTT6=
EXTT7=
EXTT8=
EXTT9=
PLAYORDER=
